<?xml version="1.0" encoding="UTF-8"?>
<svg xmlns="http://www.w3.org/2000/svg" xmlns:xlink="http://www.w3.org/1999/xlink" width="316pt" height="80pt" viewBox="0 0 316 80" version="1.1">
<g id="surface1">
<path style=" stroke:none;fill-rule:nonzero;fill:rgb(5.098039%,30.980392%,50.588235%);fill-opacity:1;" d="M 157.558594 36.515625 L 136.234375 19.5625 C 135.46875 18.945312 134.433594 18.613281 133.445312 18.613281 C 130.972656 18.617188 128.878906 20.585938 128.878906 23.0625 L 128.878906 42.164062 L 133.941406 42.164062 L 133.941406 25.015625 L 155.359375 41.96875 C 156.09375 42.554688 157.109375 42.914062 158.101562 42.917969 C 160.546875 42.914062 162.621094 40.921875 162.621094 38.476562 L 162.621094 18.542969 L 157.558594 18.542969 Z M 167.683594 26.035156 L 167.683594 35.492188 C 167.683594 39.5625 170.5 42.160156 174.566406 42.160156 L 193.488281 42.160156 C 197.59375 42.160156 201.421875 39.558594 201.421875 35.492188 L 201.421875 28.664062 L 181.179688 28.664062 L 181.179688 33.726562 L 196.363281 33.726562 L 196.363281 35.492188 C 196.363281 36.039062 195.722656 36.339844 195.335938 36.703125 C 194.949219 37.074219 194.023438 37.097656 193.488281 37.097656 L 174.566406 37.097656 C 173.460938 37.097656 172.742188 36.597656 172.742188 35.492188 L 172.742188 26.03125 C 172.742188 24.925781 173.46875 23.601562 174.566406 23.601562 L 201.421875 23.601562 L 201.421875 18.542969 L 174.566406 18.542969 C 170.503906 18.542969 167.683594 21.933594 167.683594 26.035156 Z M 118.757812 35.492188 C 118.757812 36.601562 118.191406 37.101562 117.050781 37.101562 L 98.164062 37.101562 C 97.019531 37.101562 96.828125 36.601562 96.828125 35.496094 L 96.828125 18.542969 L 90.078125 18.542969 L 90.078125 35.496094 C 90.078125 39.5625 94.0625 42.164062 98.164062 42.164062 L 117.050781 42.164062 C 121.1875 42.164062 123.820312 39.5625 123.820312 35.496094 L 123.820312 18.542969 L 118.757812 18.542969 Z M 289.121094 37.101562 C 288.019531 37.101562 287.460938 36.601562 287.460938 35.492188 L 287.460938 18.542969 L 282.398438 18.542969 L 282.398438 35.496094 C 282.398438 39.5625 285.054688 42.164062 289.121094 42.164062 L 316.136719 42.164062 L 316.136719 37.101562 Z M 204.796875 26.035156 L 204.796875 35.492188 C 204.796875 39.5625 208.683594 42.160156 212.753906 42.160156 L 231.675781 42.160156 C 235.777344 42.160156 238.535156 39.558594 238.535156 35.492188 L 238.535156 28.664062 L 219.976562 28.664062 L 219.976562 33.726562 L 233.476562 33.726562 L 233.476562 35.492188 C 233.476562 36.039062 233.371094 36.339844 232.984375 36.703125 C 232.601562 37.074219 232.210938 37.097656 231.679688 37.097656 L 212.757812 37.097656 C 211.648438 37.097656 211.546875 36.597656 211.546875 35.492188 L 211.546875 26.03125 C 211.546875 24.925781 211.65625 23.601562 212.757812 23.601562 L 238.539062 23.601562 L 238.539062 18.542969 L 212.757812 18.542969 C 208.6875 18.542969 204.796875 21.933594 204.796875 26.035156 Z M 272.277344 35.492188 C 272.277344 36.601562 271 37.101562 269.859375 37.101562 L 250.972656 37.101562 C 249.828125 37.101562 248.660156 36.601562 248.660156 35.496094 L 248.660156 18.542969 L 243.597656 18.542969 L 243.597656 35.496094 C 243.597656 39.5625 246.875 42.164062 250.972656 42.164062 L 269.863281 42.164062 C 273.996094 42.164062 277.339844 39.5625 277.339844 35.496094 L 277.339844 18.542969 L 272.277344 18.542969 Z M 272.277344 35.492188 "/>
<path style=" stroke:none;fill-rule:nonzero;fill:rgb(36.470588%,36.862745%,37.647059%);fill-opacity:1;" d="M 260.03125 62.953125 L 262.257812 62.953125 L 262.257812 51.816406 L 260.03125 51.816406 Z M 239.808594 54.042969 L 252.058594 54.042969 L 252.058594 51.816406 L 239.808594 51.816406 C 237.980469 51.816406 236.46875 53.3125 236.46875 55.15625 C 236.46875 57.003906 237.980469 58.5 239.808594 58.5 L 248.71875 58.5 C 249.324219 58.5 249.832031 58.992188 249.832031 59.609375 C 249.832031 60.214844 249.324219 60.710938 248.71875 60.710938 L 236.46875 60.710938 L 236.46875 62.953125 L 248.71875 62.953125 C 250.566406 62.953125 252.058594 61.441406 252.058594 59.609375 C 252.058594 57.765625 250.566406 56.269531 248.71875 56.269531 L 239.808594 56.269531 C 239.207031 56.269531 238.695312 55.777344 238.695312 55.15625 C 238.699219 54.550781 239.207031 54.042969 239.808594 54.042969 Z M 212.890625 51.816406 L 212.890625 59.609375 C 212.890625 61.441406 214.402344 62.953125 216.246094 62.953125 L 225.140625 62.953125 C 227.003906 62.953125 228.5 61.441406 228.5 59.609375 L 228.5 51.816406 L 226.273438 51.816406 L 226.273438 59.609375 C 226.253906 60.214844 225.761719 60.710938 225.140625 60.710938 L 216.25 60.710938 C 215.632812 60.710938 215.136719 60.214844 215.136719 59.609375 L 215.136719 51.816406 Z M 192.671875 62.953125 L 204.921875 62.953125 L 204.921875 60.710938 L 192.671875 60.710938 C 192.066406 60.710938 191.574219 60.214844 191.574219 59.609375 L 191.574219 51.816406 L 189.347656 51.816406 L 189.347656 59.609375 C 189.347656 61.441406 190.84375 62.953125 192.671875 62.953125 Z M 168.03125 59.609375 L 168.03125 55.15625 C 168.03125 54.550781 168.523438 54.042969 169.140625 54.042969 L 178.035156 54.042969 C 178.671875 54.042969 179.164062 54.550781 179.164062 55.15625 L 179.164062 59.609375 C 179.164062 60.214844 178.671875 60.710938 178.035156 60.710938 L 169.140625 60.710938 C 168.523438 60.710938 168.03125 60.214844 168.03125 59.609375 Z M 181.375 59.609375 L 181.375 55.15625 C 181.375 53.3125 179.894531 51.816406 178.035156 51.816406 L 169.140625 51.816406 C 167.296875 51.816406 165.800781 53.3125 165.800781 55.15625 L 165.800781 59.609375 C 165.800781 61.441406 167.296875 62.953125 169.140625 62.953125 L 178.035156 62.953125 C 179.894531 62.953125 181.375 61.441406 181.375 59.609375 Z M 145.578125 54.042969 L 157.828125 54.042969 L 157.828125 51.816406 L 145.578125 51.816406 C 143.75 51.816406 142.238281 53.3125 142.238281 55.15625 C 142.238281 57.003906 143.75 58.5 145.578125 58.5 L 154.488281 58.5 C 155.09375 58.5 155.605469 58.992188 155.605469 59.609375 C 155.605469 60.214844 155.09375 60.710938 154.488281 60.710938 L 142.238281 60.710938 L 142.238281 62.953125 L 154.488281 62.953125 C 156.335938 62.953125 157.828125 61.441406 157.828125 59.609375 C 157.828125 57.765625 156.335938 56.269531 154.488281 56.269531 L 145.578125 56.269531 C 144.976562 56.269531 144.464844 55.777344 144.464844 55.15625 C 144.464844 54.550781 144.976562 54.042969 145.578125 54.042969 Z M 145.578125 54.042969 "/>
<path style=" stroke:none;fill-rule:nonzero;fill:rgb(5.098039%,30.980392%,50.588235%);fill-opacity:1;" d="M 71.535156 7.941406 L 77.210938 5.257812 L 77.210938 15.867188 L 71.539062 13.242188 L 65.851562 10.625 Z M 71.535156 7.941406 "/>
<path style=" stroke:none;fill-rule:nonzero;fill:rgb(19.607843%,43.137255%,67.058824%);fill-opacity:1;" d="M 71.550781 7.976562 L 65.875 10.652344 L 65.875 0.0429688 L 71.546875 2.660156 L 77.230469 5.292969 Z M 71.550781 7.976562 "/>
<path style=" stroke:none;fill-rule:nonzero;fill:rgb(5.098039%,30.980392%,50.588235%);fill-opacity:1;" d="M 57.855469 7.976562 L 63.546875 10.632812 L 57.882812 13.28125 L 52.214844 15.941406 L 52.1875 10.632812 L 52.164062 5.320312 Z M 57.855469 7.976562 "/>
<path style=" stroke:none;fill-rule:nonzero;fill:rgb(19.607843%,43.137255%,67.058824%);fill-opacity:1;" d="M 57.832031 8.011719 L 52.140625 5.351562 L 57.800781 2.699219 L 63.472656 0.046875 L 63.496094 5.351562 L 63.519531 10.660156 Z M 57.832031 8.011719 "/>
<path style=" stroke:none;fill-rule:nonzero;fill:rgb(5.098039%,30.980392%,50.588235%);fill-opacity:1;" d="M 71.535156 20.800781 L 77.210938 18.113281 L 77.222656 23.414062 L 77.222656 28.722656 L 71.542969 26.109375 L 65.855469 23.496094 Z M 71.535156 20.800781 "/>
<path style=" stroke:none;fill-rule:nonzero;fill:rgb(19.607843%,43.137255%,67.058824%);fill-opacity:1;" d="M 71.550781 20.835938 L 65.875 23.523438 L 65.875 18.214844 L 65.867188 12.910156 L 71.542969 15.523438 L 77.230469 18.144531 Z M 71.550781 20.835938 "/>
<path style=" stroke:none;fill-rule:nonzero;fill:rgb(5.098039%,30.980392%,50.588235%);fill-opacity:1;" d="M 57.820312 20.835938 L 63.507812 23.511719 L 57.824219 26.140625 L 52.148438 28.777344 L 52.140625 18.167969 Z M 57.820312 20.835938 "/>
<path style=" stroke:none;fill-rule:nonzero;fill:rgb(19.607843%,43.137255%,67.058824%);fill-opacity:1;" d="M 57.800781 20.871094 L 52.121094 18.195312 L 57.792969 15.558594 L 63.464844 12.929688 L 63.472656 18.234375 L 63.488281 23.542969 Z M 57.800781 20.871094 "/>
<path style=" stroke:none;fill-rule:nonzero;fill:rgb(36.470588%,36.862745%,38.039216%);fill-opacity:1;" d="M 67.070312 39.074219 C 67.070312 39.746094 67.039062 40.40625 66.996094 41.066406 C 65.96875 55.597656 53.867188 67.066406 39.070312 67.066406 C 24.28125 67.066406 12.171875 55.597656 11.140625 41.066406 C 11.101562 40.40625 11.078125 39.746094 11.078125 39.074219 L 11.078125 11.652344 L 48.234375 11.652344 L 48.234375 0 L 0 0 L 0 41.066406 C 0 62.378906 17.277344 79.65625 38.589844 79.65625 C 59.902344 79.65625 77.183594 62.378906 77.183594 41.066406 L 77.183594 32.601562 L 67.070312 32.601562 Z M 67.070312 39.074219 "/>
</g>
</svg>
