<?xml version="1.0" encoding="UTF-8"?>
<svg xmlns="http://www.w3.org/2000/svg" xmlns:xlink="http://www.w3.org/1999/xlink" width="158pt" height="40pt" viewBox="0 0 158 40" version="1.1">
<g id="surface1">
<path style=" stroke:none;fill-rule:nonzero;fill:rgb(5.098039%,30.980392%,50.588235%);fill-opacity:1;" d="M 78.78125 18.257812 L 68.117188 9.78125 C 67.734375 9.472656 67.214844 9.308594 66.722656 9.308594 C 65.484375 9.308594 64.4375 10.292969 64.4375 11.53125 L 64.4375 21.082031 L 66.96875 21.082031 L 66.96875 12.507812 L 77.679688 20.984375 C 78.046875 21.277344 78.554688 21.457031 79.050781 21.460938 C 80.273438 21.457031 81.308594 20.460938 81.308594 19.238281 L 81.308594 9.273438 L 78.78125 9.273438 Z M 83.839844 13.015625 L 83.839844 17.746094 C 83.839844 19.78125 85.25 21.082031 87.285156 21.082031 L 96.746094 21.082031 C 98.796875 21.082031 100.710938 19.78125 100.710938 17.746094 L 100.710938 14.332031 L 90.589844 14.332031 L 90.589844 16.863281 L 98.179688 16.863281 L 98.179688 17.746094 C 98.179688 18.019531 97.859375 18.167969 97.667969 18.351562 C 97.472656 18.539062 97.011719 18.550781 96.746094 18.550781 L 87.285156 18.550781 C 86.730469 18.550781 86.371094 18.300781 86.371094 17.746094 L 86.371094 13.015625 C 86.371094 12.460938 86.734375 11.800781 87.285156 11.800781 L 100.710938 11.800781 L 100.710938 9.269531 L 87.285156 9.269531 C 85.25 9.273438 83.839844 10.96875 83.839844 13.015625 Z M 59.378906 17.746094 C 59.378906 18.300781 59.097656 18.550781 58.523438 18.550781 L 49.082031 18.550781 C 48.511719 18.550781 48.414062 18.300781 48.414062 17.746094 L 48.414062 9.273438 L 45.039062 9.273438 L 45.039062 17.746094 C 45.039062 19.78125 47.03125 21.082031 49.082031 21.082031 L 58.523438 21.082031 C 60.59375 21.082031 61.910156 19.78125 61.910156 17.746094 L 61.910156 9.273438 L 59.378906 9.273438 Z M 144.5625 18.550781 C 144.007812 18.550781 143.730469 18.300781 143.730469 17.746094 L 143.730469 9.273438 L 141.199219 9.273438 L 141.199219 17.746094 C 141.199219 19.78125 142.527344 21.082031 144.5625 21.082031 L 158.070312 21.082031 L 158.070312 18.550781 Z M 102.398438 13.015625 L 102.398438 17.746094 C 102.398438 19.78125 104.34375 21.082031 106.378906 21.082031 L 115.839844 21.082031 C 117.890625 21.082031 119.269531 19.78125 119.269531 17.746094 L 119.269531 14.332031 L 109.988281 14.332031 L 109.988281 16.863281 L 116.738281 16.863281 L 116.738281 17.746094 C 116.738281 18.019531 116.6875 18.167969 116.492188 18.351562 C 116.300781 18.539062 116.105469 18.550781 115.839844 18.550781 L 106.378906 18.550781 C 105.824219 18.550781 105.773438 18.300781 105.773438 17.746094 L 105.773438 13.015625 C 105.773438 12.460938 105.828125 11.800781 106.378906 11.800781 L 119.269531 11.800781 L 119.269531 9.269531 L 106.378906 9.269531 C 104.34375 9.273438 102.398438 10.96875 102.398438 13.015625 Z M 136.136719 17.746094 C 136.136719 18.300781 135.5 18.550781 134.929688 18.550781 L 125.484375 18.550781 C 124.914062 18.550781 124.328125 18.300781 124.328125 17.746094 L 124.328125 9.273438 L 121.800781 9.273438 L 121.800781 17.746094 C 121.800781 19.78125 123.4375 21.082031 125.488281 21.082031 L 134.929688 21.082031 C 136.996094 21.082031 138.667969 19.78125 138.667969 17.746094 L 138.667969 9.273438 L 136.140625 9.273438 L 136.140625 17.746094 Z M 136.136719 17.746094 "/>
<path style=" stroke:none;fill-rule:nonzero;fill:rgb(36.470588%,36.862745%,37.647059%);fill-opacity:1;" d="M 130.015625 31.476562 L 131.128906 31.476562 L 131.128906 25.910156 L 130.015625 25.910156 Z M 119.90625 27.019531 L 126.03125 27.019531 L 126.03125 25.90625 L 119.90625 25.90625 C 118.988281 25.90625 118.234375 26.65625 118.234375 27.578125 C 118.234375 28.503906 118.988281 29.25 119.90625 29.25 L 124.359375 29.25 C 124.660156 29.25 124.914062 29.496094 124.914062 29.804688 C 124.914062 30.109375 124.660156 30.355469 124.359375 30.355469 L 118.234375 30.355469 L 118.234375 31.476562 L 124.359375 31.476562 C 125.28125 31.476562 126.03125 30.722656 126.03125 29.804688 C 126.03125 28.882812 125.28125 28.136719 124.359375 28.136719 L 119.90625 28.136719 C 119.601562 28.136719 119.347656 27.890625 119.347656 27.578125 C 119.347656 27.273438 119.605469 27.019531 119.90625 27.019531 Z M 106.445312 25.90625 L 106.445312 29.804688 C 106.445312 30.71875 107.199219 31.476562 108.125 31.476562 L 112.570312 31.476562 C 113.503906 31.476562 114.25 30.71875 114.25 29.804688 L 114.25 25.90625 L 113.136719 25.90625 L 113.136719 29.804688 C 113.128906 30.105469 112.882812 30.355469 112.570312 30.355469 L 108.125 30.355469 C 107.816406 30.355469 107.566406 30.105469 107.566406 29.804688 L 107.566406 25.90625 Z M 96.335938 31.476562 L 102.460938 31.476562 L 102.460938 30.355469 L 96.335938 30.355469 C 96.03125 30.355469 95.785156 30.109375 95.785156 29.804688 L 95.785156 25.910156 L 94.671875 25.910156 L 94.671875 29.804688 C 94.671875 30.722656 95.421875 31.476562 96.335938 31.476562 Z M 84.015625 29.804688 L 84.015625 27.578125 C 84.015625 27.273438 84.261719 27.019531 84.570312 27.019531 L 89.019531 27.019531 C 89.335938 27.019531 89.582031 27.273438 89.582031 27.578125 L 89.582031 29.804688 C 89.582031 30.109375 89.335938 30.355469 89.019531 30.355469 L 84.570312 30.355469 C 84.261719 30.355469 84.015625 30.105469 84.015625 29.804688 Z M 90.6875 29.804688 L 90.6875 27.578125 C 90.6875 26.65625 89.949219 25.90625 89.019531 25.90625 L 84.570312 25.90625 C 83.648438 25.90625 82.898438 26.65625 82.898438 27.578125 L 82.898438 29.804688 C 82.898438 30.722656 83.648438 31.476562 84.570312 31.476562 L 89.015625 31.476562 C 89.945312 31.476562 90.6875 30.722656 90.6875 29.804688 Z M 72.789062 27.019531 L 78.914062 27.019531 L 78.914062 25.90625 L 72.789062 25.90625 C 71.875 25.90625 71.117188 26.65625 71.117188 27.578125 C 71.117188 28.503906 71.875 29.25 72.789062 29.25 L 77.242188 29.25 C 77.546875 29.25 77.800781 29.496094 77.800781 29.804688 C 77.800781 30.109375 77.546875 30.355469 77.242188 30.355469 L 71.117188 30.355469 L 71.117188 31.476562 L 77.242188 31.476562 C 78.167969 31.476562 78.914062 30.722656 78.914062 29.804688 C 78.914062 28.882812 78.167969 28.136719 77.242188 28.136719 L 72.789062 28.136719 C 72.488281 28.136719 72.234375 27.890625 72.234375 27.578125 C 72.234375 27.273438 72.488281 27.019531 72.789062 27.019531 Z M 72.789062 27.019531 "/>
<path style=" stroke:none;fill-rule:nonzero;fill:rgb(5.098039%,30.980392%,50.588235%);fill-opacity:1;" d="M 35.769531 3.96875 L 38.605469 2.628906 L 38.605469 7.933594 L 35.769531 6.621094 L 32.925781 5.3125 Z M 35.769531 3.96875 "/>
<path style=" stroke:none;fill-rule:nonzero;fill:rgb(19.607843%,43.137255%,67.058824%);fill-opacity:1;" d="M 35.777344 3.988281 L 32.9375 5.324219 L 32.9375 0.0195312 L 35.773438 1.332031 L 38.617188 2.648438 Z M 35.777344 3.988281 "/>
<path style=" stroke:none;fill-rule:nonzero;fill:rgb(5.098039%,30.980392%,50.588235%);fill-opacity:1;" d="M 28.929688 3.988281 L 31.773438 5.316406 L 28.941406 6.640625 L 26.105469 7.96875 L 26.09375 5.316406 L 26.082031 2.660156 Z M 28.929688 3.988281 "/>
<path style=" stroke:none;fill-rule:nonzero;fill:rgb(19.607843%,43.137255%,67.058824%);fill-opacity:1;" d="M 28.914062 4.003906 L 26.070312 2.675781 L 28.902344 1.351562 L 31.738281 0.0234375 L 31.761719 5.328125 Z M 28.914062 4.003906 "/>
<path style=" stroke:none;fill-rule:nonzero;fill:rgb(5.098039%,30.980392%,50.588235%);fill-opacity:1;" d="M 35.769531 10.398438 L 38.605469 9.058594 L 38.609375 11.707031 L 38.609375 14.359375 L 35.769531 13.054688 L 32.925781 11.746094 Z M 35.769531 10.398438 "/>
<path style=" stroke:none;fill-rule:nonzero;fill:rgb(19.607843%,43.137255%,67.058824%);fill-opacity:1;" d="M 35.777344 10.417969 L 32.9375 11.761719 L 32.9375 9.109375 L 32.933594 6.457031 L 35.769531 7.761719 L 38.617188 9.070312 Z M 35.777344 10.417969 "/>
<path style=" stroke:none;fill-rule:nonzero;fill:rgb(5.098039%,30.980392%,50.588235%);fill-opacity:1;" d="M 28.910156 10.417969 L 31.753906 11.757812 L 28.914062 13.070312 L 26.074219 14.390625 L 26.070312 11.734375 L 26.070312 9.085938 Z M 28.910156 10.417969 "/>
<path style=" stroke:none;fill-rule:nonzero;fill:rgb(19.607843%,43.137255%,67.058824%);fill-opacity:1;" d="M 28.898438 10.433594 L 26.0625 9.097656 L 28.894531 7.777344 L 31.734375 6.464844 L 31.742188 11.769531 Z M 28.898438 10.433594 "/>
<path style=" stroke:none;fill-rule:nonzero;fill:rgb(36.470588%,36.862745%,38.039216%);fill-opacity:1;" d="M 33.535156 19.535156 C 33.535156 19.871094 33.519531 20.203125 33.496094 20.53125 C 32.984375 27.800781 26.933594 33.53125 19.535156 33.53125 C 12.140625 33.53125 6.085938 27.800781 5.570312 20.53125 C 5.550781 20.203125 5.539062 19.871094 5.539062 19.535156 L 5.539062 5.824219 L 24.117188 5.824219 L 24.117188 0 L 0 0 L 0 20.53125 C 0 31.191406 8.640625 39.828125 19.296875 39.828125 C 29.953125 39.828125 38.59375 31.1875 38.59375 20.53125 L 38.59375 16.300781 L 33.535156 16.300781 Z M 33.535156 19.535156 "/>
</g>
</svg>
