<?xml version="1.0" encoding="UTF-8"?>
<svg xmlns="http://www.w3.org/2000/svg" xmlns:xlink="http://www.w3.org/1999/xlink" width="147pt" height="35pt" viewBox="0 0 147 35" version="1.1">
<g id="surface1">
<path style=" stroke:none;fill-rule:nonzero;fill:rgb(84.705882%,25.882353%,15.686275%);fill-opacity:1;" d="M 67.0625 10.261719 L 67.0625 13.441406 L 70.480469 13.441406 C 70.558594 13.441406 70.71875 13.523438 70.71875 13.683594 L 70.71875 22.988281 L 74.136719 22.988281 L 74.136719 13.601562 C 74.136719 13.523438 74.214844 13.363281 74.375 13.363281 L 77.789062 13.363281 L 77.789062 10.183594 L 67.0625 10.183594 Z M 67.0625 10.261719 "/>
<path style=" stroke:none;fill-rule:nonzero;fill:rgb(84.705882%,25.882353%,15.686275%);fill-opacity:1;" d="M 117.839844 16.546875 C 118.792969 16.066406 119.507812 15.113281 119.507812 13.839844 C 119.507812 11.613281 117.996094 10.183594 114.582031 10.183594 L 108.859375 10.183594 L 108.859375 22.828125 L 114.898438 22.828125 C 118.234375 22.828125 119.746094 21.476562 119.746094 19.171875 C 119.824219 18.058594 118.949219 17.023438 117.839844 16.546875 Z M 112.355469 13.285156 C 112.355469 13.203125 112.433594 13.046875 112.59375 13.046875 L 114.582031 13.046875 C 115.535156 13.046875 116.011719 13.441406 116.011719 14.078125 C 116.011719 14.796875 115.535156 15.113281 114.582031 15.113281 L 112.59375 15.113281 C 112.515625 15.113281 112.355469 15.035156 112.355469 14.875 Z M 114.738281 20.125 L 112.515625 20.125 C 112.433594 20.125 112.277344 20.046875 112.277344 19.886719 L 112.277344 18.136719 C 112.277344 18.058594 112.355469 17.898438 112.515625 17.898438 L 114.660156 17.898438 C 115.613281 17.898438 116.167969 18.296875 116.167969 19.011719 C 116.25 19.808594 115.773438 20.125 114.738281 20.125 Z M 114.738281 20.125 "/>
<path style=" stroke:none;fill-rule:nonzero;fill:rgb(84.705882%,25.882353%,15.686275%);fill-opacity:1;" d="M 135.238281 16.625 C 135.238281 20.441406 132.457031 23.226562 128.566406 23.226562 C 124.671875 23.226562 121.890625 20.441406 121.890625 16.625 C 121.890625 12.808594 124.671875 10.023438 128.566406 10.023438 C 132.457031 10.023438 135.238281 12.808594 135.238281 16.625 Z M 125.386719 16.625 C 125.386719 18.535156 126.660156 19.886719 128.484375 19.886719 C 130.3125 19.886719 131.585938 18.535156 131.585938 16.625 C 131.585938 14.714844 130.3125 13.363281 128.484375 13.363281 C 126.660156 13.285156 125.386719 14.636719 125.386719 16.625 Z M 125.386719 16.625 "/>
<path style=" stroke:none;fill-rule:nonzero;fill:rgb(84.705882%,25.882353%,15.686275%);fill-opacity:1;" d="M 45.054688 10.261719 L 39.648438 10.261719 C 39.570312 10.261719 39.410156 10.339844 39.410156 10.5 L 39.410156 22.75 C 39.410156 22.828125 39.492188 22.988281 39.648438 22.988281 L 45.054688 22.988281 C 49.027344 22.988281 51.648438 20.441406 51.648438 16.625 C 51.570312 12.808594 49.027344 10.261719 45.054688 10.261719 Z M 44.972656 19.808594 L 43.066406 19.808594 C 42.988281 19.808594 42.828125 19.726562 42.828125 19.566406 L 42.828125 13.601562 C 42.828125 13.523438 42.90625 13.441406 43.066406 13.441406 L 44.972656 13.441406 C 47.039062 13.441406 48.074219 14.796875 48.074219 16.625 C 47.992188 18.453125 47.039062 19.808594 44.972656 19.808594 Z M 44.972656 19.808594 "/>
<path style=" stroke:none;fill-rule:nonzero;fill:rgb(84.705882%,25.882353%,15.686275%);fill-opacity:1;" d="M 56.894531 21.714844 L 57.289062 20.683594 Z M 56.894531 21.714844 "/>
<path style=" stroke:none;fill-rule:nonzero;fill:rgb(84.705882%,25.882353%,15.686275%);fill-opacity:1;" d="M 64.203125 16.625 L 61.820312 10.261719 L 57.765625 10.261719 L 53 22.988281 L 56.574219 22.988281 L 56.65625 22.828125 L 56.972656 21.796875 L 57.289062 20.761719 C 57.289062 20.683594 57.449219 20.601562 57.527344 20.601562 L 61.820312 20.601562 C 61.898438 20.601562 62.058594 20.683594 62.058594 20.761719 L 62.375 21.796875 L 62.773438 22.988281 L 66.429688 22.988281 Z M 60.867188 17.660156 L 58.5625 17.660156 C 58.480469 17.660156 58.402344 17.578125 58.402344 17.5 L 59.59375 13.921875 C 59.675781 13.839844 59.675781 13.839844 59.753906 13.921875 L 60.945312 17.5 C 61.023438 17.578125 60.945312 17.660156 60.867188 17.660156 Z M 60.867188 17.660156 "/>
<path style=" stroke:none;fill-rule:nonzero;fill:rgb(84.705882%,25.882353%,15.686275%);fill-opacity:1;" d="M 80.175781 10.261719 L 80.175781 13.441406 L 83.589844 13.441406 C 83.671875 13.441406 83.828125 13.523438 83.828125 13.683594 L 83.828125 22.988281 L 87.246094 22.988281 L 87.246094 13.601562 C 87.246094 13.523438 87.324219 13.363281 87.484375 13.363281 L 90.902344 13.363281 L 90.902344 10.183594 L 80.175781 10.183594 Z M 80.175781 10.261719 "/>
<path style=" stroke:none;fill-rule:nonzero;fill:rgb(84.705882%,25.882353%,15.686275%);fill-opacity:1;" d="M 95.273438 21.714844 L 95.667969 20.683594 Z M 95.273438 21.714844 "/>
<path style=" stroke:none;fill-rule:nonzero;fill:rgb(84.705882%,25.882353%,15.686275%);fill-opacity:1;" d="M 102.898438 16.625 L 100.515625 10.261719 L 96.464844 10.261719 L 94.078125 16.625 L 91.695312 22.988281 L 95.273438 22.988281 L 95.351562 22.828125 L 95.667969 21.796875 L 95.988281 20.761719 C 96.066406 20.683594 96.144531 20.601562 96.226562 20.601562 L 100.515625 20.601562 C 100.59375 20.601562 100.753906 20.683594 100.753906 20.761719 L 101.074219 21.796875 L 101.46875 22.988281 L 105.125 22.988281 Z M 99.5625 17.660156 L 97.257812 17.660156 C 97.179688 17.660156 97.097656 17.578125 97.097656 17.5 L 98.371094 13.921875 C 98.371094 13.839844 98.449219 13.839844 98.53125 13.921875 L 99.722656 17.5 C 99.722656 17.578125 99.722656 17.660156 99.5625 17.660156 Z M 99.5625 17.660156 "/>
<path style=" stroke:none;fill-rule:nonzero;fill:rgb(84.705882%,25.882353%,15.686275%);fill-opacity:1;" d="M 136.589844 10.261719 L 136.589844 13.441406 L 140.007812 13.441406 C 140.085938 13.441406 140.246094 13.523438 140.246094 13.683594 L 140.246094 22.988281 L 143.664062 22.988281 L 143.664062 13.601562 C 143.664062 13.523438 143.742188 13.363281 143.902344 13.363281 L 147.316406 13.363281 L 147.316406 10.183594 L 136.589844 10.183594 Z M 136.589844 10.261719 "/>
<path style=" stroke:none;fill-rule:nonzero;fill:rgb(85.098039%,25.490196%,16.078431%);fill-opacity:1;" d="M 13.109375 0.636719 C 23.679688 0.636719 30.195312 7.316406 30.195312 17.5 C 30.195312 27.683594 23.597656 34.363281 13.109375 34.363281 L 0.554688 34.363281 C 0.316406 34.363281 0.238281 34.203125 0.238281 34.046875 L 0.238281 0.953125 C 0.238281 0.796875 0.316406 0.636719 0.554688 0.636719 Z M 13.109375 0.636719 "/>
<path style=" stroke:none;fill-rule:nonzero;fill:rgb(82.745098%,86.27451%,88.235294%);fill-opacity:1;" d="M 19.386719 17.339844 C 19.386719 17.261719 19.386719 17.261719 19.386719 17.339844 C 20.976562 16.625 22.167969 15.035156 22.167969 13.046875 C 22.167969 9.226562 19.230469 7.476562 14.621094 7.476562 L 6.753906 7.476562 C 6.59375 7.476562 6.4375 7.558594 6.4375 7.796875 L 6.4375 27.125 C 6.4375 27.363281 6.59375 27.441406 6.753906 27.441406 L 15.097656 27.441406 C 19.863281 27.441406 22.644531 25.535156 22.644531 21.714844 C 22.644531 19.648438 21.214844 17.976562 19.386719 17.339844 Z M 19.386719 17.339844 "/>
<path style=" stroke:none;fill-rule:nonzero;fill:rgb(27.058824%,29.803922%,28.627451%);fill-opacity:1;" d="M 12 21.558594 C 12 20.441406 12.792969 19.566406 13.984375 19.566406 C 15.097656 19.566406 15.972656 20.363281 15.972656 21.558594 C 15.972656 22.671875 15.175781 23.546875 13.984375 23.546875 C 12.792969 23.546875 12 22.671875 12 21.558594 Z M 14.699219 21.558594 C 14.699219 20.921875 14.144531 20.839844 13.984375 20.839844 C 13.746094 20.839844 13.269531 20.921875 13.269531 21.558594 C 13.269531 22.191406 13.824219 22.273438 13.984375 22.273438 C 14.144531 22.273438 14.699219 22.191406 14.699219 21.558594 Z M 14.699219 21.558594 "/>
<path style=" stroke:none;fill-rule:nonzero;fill:rgb(27.058824%,29.803922%,28.627451%);fill-opacity:1;" d="M 15.890625 12.566406 C 15.890625 12.566406 15.8125 12.566406 15.890625 12.566406 L 15.335938 11.851562 C 15.335938 11.851562 15.335938 11.851562 15.257812 11.851562 L 14.621094 11.851562 L 14.621094 12.488281 L 12.078125 12.488281 L 12.078125 13.683594 C 12.078125 13.683594 12.078125 13.683594 12 13.683594 L 15.734375 13.683594 C 15.734375 13.683594 15.8125 13.683594 15.8125 13.601562 L 15.8125 12.566406 Z M 15.890625 12.566406 "/>
</g>
</svg>
