<svg width="29" height="25" viewBox="0 0 29 25" fill="none" xmlns="http://www.w3.org/2000/svg">
<path d="M19.3089 11.6072C19.3089 9.88654 18.6389 8.41472 17.2989 7.19169C15.9589 5.96867 14.3463 5.35715 12.4611 5.35715C10.5759 5.35715 8.96328 5.96867 7.62327 7.19169C6.28325 8.41472 5.61324 9.88654 5.61324 11.6072C5.61324 13.3278 6.28325 14.7996 7.62327 16.0226C8.96328 17.2456 10.5759 17.8572 12.4611 17.8572C14.3463 17.8572 15.9589 17.2456 17.2989 16.0226C18.6389 14.7996 19.3089 13.3278 19.3089 11.6072ZM27.135 23.2143C27.135 23.6979 26.9414 24.1165 26.5542 24.4699C26.1669 24.8233 25.7084 25 25.1785 25C24.6282 25 24.1696 24.8233 23.8028 24.4699L18.5599 19.6987C16.7359 20.8519 14.7029 21.4286 12.4611 21.4286C11.0039 21.4286 9.61036 21.1705 8.28054 20.6543C6.95071 20.1381 5.80431 19.4406 4.84133 18.5617C3.87836 17.6828 3.11409 16.6364 2.54853 15.4227C1.98297 14.209 1.7002 12.9371 1.7002 11.6072C1.7002 10.2772 1.98297 9.00531 2.54853 7.79158C3.11409 6.57785 3.87836 5.53154 4.84133 4.65263C5.80431 3.77372 6.95071 3.07618 8.28054 2.56C9.61036 2.04381 11.0039 1.78572 12.4611 1.78572C13.9183 1.78572 15.3118 2.04381 16.6416 2.56C17.9714 3.07618 19.1178 3.77372 20.0808 4.65263C21.0438 5.53154 21.8081 6.57785 22.3736 7.79158C22.9392 9.00531 23.222 10.2772 23.222 11.6072C23.222 13.6533 22.5902 15.5088 21.3266 17.1736L26.5694 21.9587C26.9465 22.3028 27.135 22.7214 27.135 23.2143Z" fill="#0099DD"/>
</svg>
